<svg xmlns="http://www.w3.org/2000/svg" version="1.1" xmlns:xlink="http://www.w3.org/1999/xlink" xmlns:svgjs="http://svgjs.dev/svgjs" width="2000" height="1500" viewBox="0 0 2000 1500"><rect width="2000" height="1500" fill="#ffffff"></rect><g transform="matrix(0.75,0,0,0.75,249.090909090909,298.5457889612046)"><svg viewBox="0 0 396 247" data-background-color="#ffffff" preserveAspectRatio="xMidYMid meet" height="1247" width="2000" xmlns="http://www.w3.org/2000/svg" xmlns:xlink="http://www.w3.org/1999/xlink"><g id="tight-bounds" transform="matrix(1,0,0,1,0.2400000000000091,-0.09999999999999432)"><svg viewBox="0 0 395.52 247.2" height="247.2" width="395.52"><g><svg></svg></g><g><svg viewBox="0 0 395.52 247.2" height="247.2" width="395.52"><g transform="matrix(1,0,0,1,75.54432,57.70973904515979)"><svg viewBox="0 0 244.43135999999998 131.7805219096804" height="131.7805219096804" width="244.43135999999998"><g><svg viewBox="0 0 244.43135999999998 131.7805219096804" height="131.7805219096804" width="244.43135999999998"><g><svg viewBox="0 0 244.43135999999998 131.7805219096804" height="131.7805219096804" width="244.43135999999998"><g><svg viewBox="0 0 244.43135999999998 131.7805219096804" height="131.7805219096804" width="244.43135999999998"><g id="textblocktransform"><svg viewBox="0 0 244.43135999999998 131.7805219096804" height="131.7805219096804" width="244.43135999999998" id="textblock"><g><svg viewBox="0 0 244.43135999999998 105.75640804387567" height="105.75640804387567" width="244.43135999999998"><g transform="matrix(1,0,0,1,0,0)"><svg width="244.43135999999998" viewBox="1.25 -35.5 82.04 35.5" height="105.75640804387567" data-palette-color="#8bc53f"><path d="M1.9-35.5L12.25-34.8 12.5-31.65 8.1-31.65 8.1 0 3.85 0 4.85-30.75 1.25-31.95 1.9-35.5ZM19.4-35.5L20.45-1 16.25-1 16.25-35.5 19.4-35.5ZM37.3-9.35L37.3-1 26.65-1 24.6-3.1 25.6-32.65Q25.65-33.75 26.52-34.63 27.4-35.5 28.95-35.5L28.95-35.5 29.6-35.45 37.3-34.45 36.5-26.4 34.2-26.4 34.2-31.05Q34.2-31.5 33.59-31.5L33.59-31.5 30.5-31.5Q29.55-31.5 29.12-30.73 28.7-29.95 28.7-29L28.7-29Q28.7-28.45 28.85-28.35L28.85-28.35 28.85-4.95Q28.7-4.9 28.7-4.8L28.7-4.8Q28.7-4.65 29.15-4.65L29.15-4.65 34.09-4.65Q34.7-4.65 34.7-4.95L34.7-4.95 34.7-8.7 35.65-9.3 37.3-9.35ZM53.14-1.05L52.24 0 49.29 0 46.64-16.9 45.54-16.05 45.54 0 42.19 0 41.54-35 42.84-35.5 44.94-35.5 44.94-18.6 48.49-21.6 47.94-34.35 52.24-35.5 51.19-20.05 49.14-18.45 53.14-1.05ZM67.74-4.15L67.74 0 57.04 0 57.04-35.5 67.74-35.5 67.74-32.4 61.49-32.7 61.49-21.35 67.74-20.2 67.74-17.8 60.64-18.1 60.64-3.75 67.74-4.15ZM72.69-35.5L83.04-34.8 83.29-31.65 78.89-31.65 78.89 0 74.64 0 75.64-30.75 72.04-31.95 72.69-35.5Z" opacity="1" transform="matrix(1,0,0,1,0,0)" fill="#8bc53f" class="wordmark-text-0" data-fill-palette-color="primary" id="text-0"></path></svg></g></svg></g><g transform="matrix(1,0,0,1,0,130.72295782924166)"><svg viewBox="0 0 244.43135999999998 1.0575640804387567" height="1.0575640804387567" width="244.43135999999998"><g transform="matrix(1,0,0,1,0,0)"><svg width="244.43135999999998" viewBox="1.35 -36.75 8493.91 36.75" height="1.0575640804387567" data-palette-color="#8bc53f"><path d="M6.2 0L6.2 0Q4 0 2.68-1.33 1.35-2.65 1.35-4.6L1.35-4.6 1.35-21.15Q1.35-23.25 2.6-24.7 3.85-26.15 6.2-26.15L6.2-26.15Q8.5-26.15 9.7-24.7 10.9-23.25 10.9-21.05L10.9-21.05 10.9-18.55 11.8-18.55Q11.8-21.4 12.83-23.05 13.85-24.7 15.45-25.43 17.05-26.15 18.65-26.15L18.65-26.15Q22.5-26.15 24.3-23.38 26.1-20.6 26.1-15.5L26.1-15.5 26.1-4.6Q26.1-2.65 24.8-1.33 23.5 0 21.3 0L21.3 0Q19.05 0 17.73-1.33 16.4-2.65 16.4-4.6L16.4-4.6 16.4-13.45Q16.4-15.25 15.73-16.25 15.05-17.25 13.75-17.25L13.75-17.25Q12.25-17.25 11.58-16.15 10.9-15.05 10.9-13.35L10.9-13.35 10.9-4.6Q10.9-2.65 9.65-1.33 8.4 0 6.2 0ZM2832.45 0L2832.45 0Q2828.75 0 2826.68-2 2824.6-4 2824.6-7.6L2824.6-7.6Q2824.6-11.2 2827-12.83 2829.4-14.45 2833.15-14.45L2833.15-14.45Q2835.35-14.45 2837.15-14.15 2838.95-13.85 2840.4-13.3L2840.4-13.3 2840.55-13.3 2840.55-14.05Q2840.55-15.2 2839.7-15.88 2838.85-16.55 2837.55-16.5L2837.55-16.5Q2836.3-16.5 2835.43-16.35 2834.55-16.2 2833.25-15.85L2833.25-15.85Q2830.85-15.25 2829.1-15.95 2827.35-16.65 2826.7-18.7L2826.7-18.7Q2826.1-20.85 2826.98-22.3 2827.85-23.75 2829.65-24.55L2829.65-24.55Q2831.2-25.3 2833.13-25.8 2835.05-26.3 2837.3-26.3L2837.3-26.3Q2843.85-26.3 2846.93-23.13 2850-19.95 2850-12.5L2850-12.5 2850-4.75Q2850-2.7 2848.75-1.35 2847.5 0 2845.3 0L2845.3 0Q2842.9 0 2841.73-1.35 2840.55-2.7 2840.55-4.65L2840.55-4.65 2840.55-5.8 2839.55-5.8Q2839.55-4.5 2839.08-3.15 2838.6-1.8 2837.13-0.9 2835.65 0 2832.45 0ZM2832.95-10.95L2832.95-10.95Q2832.95-10.1 2833.58-9.75 2834.2-9.4 2836.3-9.4L2836.3-9.4Q2838.2-9.4 2838.95-9.75 2839.7-10.1 2839.7-10.95L2839.7-10.95Q2839.7-11.75 2838.95-12.08 2838.2-12.4 2836.3-12.4L2836.3-12.4Q2834.2-12.4 2833.58-12.08 2832.95-11.75 2832.95-10.95ZM5653.66 0L5653.66 0Q5651.41 0 5650.08-1.33 5648.76-2.65 5648.76-4.6L5648.76-4.6 5648.76-21.15Q5648.76-23.25 5650.03-24.7 5651.31-26.15 5653.66-26.15L5653.66-26.15Q5655.96-26.15 5657.11-24.7 5658.26-23.25 5658.26-21.05L5658.26-21.05 5658.26-18.55 5659.16-18.55Q5659.16-22.8 5660.96-24.48 5662.76-26.15 5665.41-26.15L5665.41-26.15Q5668.81-26.15 5670.41-24.05 5672.01-21.95 5672.01-18.55L5672.01-18.55 5672.91-18.55Q5672.91-21.4 5673.86-23.05 5674.81-24.7 5676.28-25.43 5677.76-26.15 5679.36-26.15L5679.36-26.15Q5682.61-26.15 5684.13-24.6 5685.66-23.05 5686.11-20.45 5686.56-17.85 5686.56-14.6L5686.56-14.6 5686.56-4.6Q5686.56-2.65 5685.23-1.33 5683.91 0 5681.71 0L5681.71 0Q5679.51 0 5678.16-1.33 5676.81-2.65 5676.81-4.6L5676.81-4.6 5676.81-13.45Q5676.81-15.25 5676.36-16.25 5675.91-17.25 5674.56-17.25L5674.56-17.25Q5673.11-17.25 5672.68-16.15 5672.26-15.05 5672.26-13.35L5672.26-13.35 5672.26-4.6Q5672.26-2.65 5671.01-1.33 5669.76 0 5667.56 0L5667.56 0Q5665.31 0 5663.98-1.33 5662.66-2.65 5662.66-4.6L5662.66-4.6 5662.66-13.45Q5662.66-15.25 5662.21-16.25 5661.76-17.25 5660.46-17.25L5660.46-17.25Q5659.01-17.25 5658.63-16.15 5658.26-15.05 5658.26-13.35L5658.26-13.35 5658.26-4.6Q5658.26-2.65 5657.06-1.33 5655.86 0 5653.66 0ZM8485.31-31.95L8485.31-31.95Q8485.31-34.1 8486.63-35.43 8487.96-36.75 8490.31-36.75L8490.31-36.75Q8492.81-36.75 8494.03-35.45 8495.26-34.15 8495.26-32L8495.26-32Q8495.26-29.9 8494.03-28.63 8492.81-27.35 8490.31-27.35L8490.31-27.35Q8487.86-27.35 8486.58-28.63 8485.31-29.9 8485.31-31.95ZM8490.31 0L8490.31 0Q8487.96 0 8486.81-1.3 8485.66-2.6 8485.66-4.55L8485.66-4.55 8485.66-21.65Q8485.66-23.8 8486.81-25.05 8487.96-26.3 8490.31-26.3L8490.31-26.3Q8492.66-26.3 8493.83-25.05 8495.01-23.8 8495.01-21.75L8495.01-21.75 8495.01-4.55Q8495.01-2.6 8493.78-1.3 8492.56 0 8490.31 0Z" opacity="1" transform="matrix(1,0,0,1,0,0)" fill="#8bc53f" class="slogan-text-1" data-fill-palette-color="secondary" id="text-1"></path></svg></g></svg></g></svg></g></svg></g><g></g></svg></g></svg></g></svg></g><g><path d="M116.018 32.743A122.216 122.216 0 0 1 279.502 32.743L269.965 32.743A112.678 112.678 0 0 0 125.555 32.743L116.018 32.743M116.018 214.457A122.216 122.216 0 0 0 279.502 214.457L269.965 214.457A112.678 112.678 0 0 1 125.555 214.457L116.018 214.457" fill="#8bc53f" stroke="transparent" data-fill-palette-color="tertiary"></path></g></svg></g><defs></defs></svg><rect width="395.52" height="247.2" fill="none" stroke="none" visibility="hidden"></rect></g></svg></g></svg>