<svg xmlns="http://www.w3.org/2000/svg" xmlns:svgjs="http://svgjs.dev/svgjs" xmlns:xlink="http://www.w3.org/1999/xlink" width="1500" height="1500" version="1.1" viewBox="0 0 1500 1500">
    <rect width="1500" height="1500" fill="#ffffff"/>
    <g transform="matrix(0.6666666666666666,0,0,0.6666666666666666,249.39393939393938,438.5856950067477)">
        <svg xmlns="http://www.w3.org/2000/svg" xmlns:xlink="http://www.w3.org/1999/xlink" width="1500" height="935" data-background-color="#ffffff" preserveAspectRatio="xMidYMid meet" viewBox="0 0 396 247">
            <g id="tight-bounds" transform="matrix(1,0,0,1,0.2400000000000091,-0.09999999999999432)">
                <svg width="395.52" height="247.2" viewBox="0 0 395.52 247.2">
                    <g>
                        <svg/>
                    </g>
                    <g>
                        <svg width="395.52" height="247.2" viewBox="0 0 395.52 247.2">
                            <g transform="matrix(1,0,0,1,102.5396779620593,47.215199999999996)">
                                <svg width="190.44064407588138" height="152.7696" viewBox="0 0 190.44064407588138 152.7696">
                                    <g>
                                        <svg width="190.44064407588138" height="152.7696" viewBox="0 0 190.44064407588138 152.7696">
                                            <g>
                                                <svg width="190.44064407588138" height="152.7696" viewBox="0 0 244.43135999999998 196.08041800035681">
                                                    <g>
                                                        <svg width="244.43135999999998" height="196.08041800035681" viewBox="0 0 244.43135999999998 196.08041800035681">
                                                            <g id="textblocktransform">
                                                                <svg id="textblock" width="244.43135999999998" height="196.08041800035681" viewBox="0 0 244.43135999999998 196.08041800035681">
                                                                    <g>
                                                                        <svg width="244.43135999999998" height="105.75640804387567" viewBox="0 0 244.43135999999998 105.75640804387567">
                                                                            <g transform="matrix(1,0,0,1,0,0)">
                                                                                <svg width="244.43135999999998" height="105.75640804387567" data-palette-color="#8bc53f" viewBox="1.25 -35.5 82.04 35.5">
                                                                                    <path id="text-0" fill="#8bc53f" d="M1.9-35.5L12.25-34.8 12.5-31.65 8.1-31.65 8.1 0 3.85 0 4.85-30.75 1.25-31.95 1.9-35.5ZM19.4-35.5L20.45-1 16.25-1 16.25-35.5 19.4-35.5ZM37.3-9.35L37.3-1 26.65-1 24.6-3.1 25.6-32.65Q25.65-33.75 26.52-34.63 27.4-35.5 28.95-35.5L28.95-35.5 29.6-35.45 37.3-34.45 36.5-26.4 34.2-26.4 34.2-31.05Q34.2-31.5 33.59-31.5L33.59-31.5 30.5-31.5Q29.55-31.5 29.12-30.73 28.7-29.95 28.7-29L28.7-29Q28.7-28.45 28.85-28.35L28.85-28.35 28.85-4.95Q28.7-4.9 28.7-4.8L28.7-4.8Q28.7-4.65 29.15-4.65L29.15-4.65 34.09-4.65Q34.7-4.65 34.7-4.95L34.7-4.95 34.7-8.7 35.65-9.3 37.3-9.35ZM53.14-1.05L52.24 0 49.29 0 46.64-16.9 45.54-16.05 45.54 0 42.19 0 41.54-35 42.84-35.5 44.94-35.5 44.94-18.6 48.49-21.6 47.94-34.35 52.24-35.5 51.19-20.05 49.14-18.45 53.14-1.05ZM67.74-4.15L67.74 0 57.04 0 57.04-35.5 67.74-35.5 67.74-32.4 61.49-32.7 61.49-21.35 67.74-20.2 67.74-17.8 60.64-18.1 60.64-3.75 67.74-4.15ZM72.69-35.5L83.04-34.8 83.29-31.65 78.89-31.65 78.89 0 74.64 0 75.64-30.75 72.04-31.95 72.69-35.5Z" class="wordmark-text-0" data-fill-palette-color="primary" opacity="1" transform="matrix(1,0,0,1,0,0)"/>
                                                                                </svg>
                                                                            </g>
                                                                        </svg>
                                                                    </g>
                                                                    <g transform="matrix(1,0,0,1,0,130.72295782924166)">
                                                                        <svg width="244.43135999999998" height="65.35746017111516" viewBox="0 0 244.43135999999998 65.35746017111516">
                                                                            <g transform="matrix(1,0,0,1,0,0)">
                                                                                <svg width="244.43135999999998" height="65.35746017111516" data-palette-color="#8bc53f" viewBox="1.35 -36.75 137.44 36.75">
                                                                                    <path id="text-1" fill="#8bc53f" d="M6.2 0L6.2 0Q4 0 2.68-1.33 1.35-2.65 1.35-4.6L1.35-4.6 1.35-21.15Q1.35-23.25 2.6-24.7 3.85-26.15 6.2-26.15L6.2-26.15Q8.5-26.15 9.7-24.7 10.9-23.25 10.9-21.05L10.9-21.05 10.9-18.55 11.8-18.55Q11.8-21.4 12.83-23.05 13.85-24.7 15.45-25.43 17.05-26.15 18.65-26.15L18.65-26.15Q22.5-26.15 24.3-23.38 26.1-20.6 26.1-15.5L26.1-15.5 26.1-4.6Q26.1-2.65 24.8-1.33 23.5 0 21.3 0L21.3 0Q19.05 0 17.73-1.33 16.4-2.65 16.4-4.6L16.4-4.6 16.4-13.45Q16.4-15.25 15.73-16.25 15.05-17.25 13.75-17.25L13.75-17.25Q12.25-17.25 11.58-16.15 10.9-15.05 10.9-13.35L10.9-13.35 10.9-4.6Q10.9-2.65 9.65-1.33 8.4 0 6.2 0ZM46.96 0L46.96 0Q43.26 0 41.19-2 39.11-4 39.11-7.6L39.11-7.6Q39.11-11.2 41.51-12.83 43.91-14.45 47.66-14.45L47.66-14.45Q49.86-14.45 51.66-14.15 53.46-13.85 54.91-13.3L54.91-13.3 55.06-13.3 55.06-14.05Q55.06-15.2 54.21-15.88 53.36-16.55 52.06-16.5L52.06-16.5Q50.81-16.5 49.94-16.35 49.06-16.2 47.76-15.85L47.76-15.85Q45.36-15.25 43.61-15.95 41.86-16.65 41.21-18.7L41.21-18.7Q40.61-20.85 41.49-22.3 42.36-23.75 44.16-24.55L44.16-24.55Q45.71-25.3 47.64-25.8 49.56-26.3 51.81-26.3L51.81-26.3Q58.36-26.3 61.44-23.13 64.51-19.95 64.51-12.5L64.51-12.5 64.51-4.75Q64.51-2.7 63.26-1.35 62.01 0 59.81 0L59.81 0Q57.41 0 56.24-1.35 55.06-2.7 55.06-4.65L55.06-4.65 55.06-5.8 54.06-5.8Q54.06-4.5 53.59-3.15 53.11-1.8 51.64-0.9 50.16 0 46.96 0ZM47.46-10.95L47.46-10.95Q47.46-10.1 48.09-9.75 48.71-9.4 50.81-9.4L50.81-9.4Q52.71-9.4 53.46-9.75 54.21-10.1 54.21-10.95L54.21-10.95Q54.21-11.75 53.46-12.08 52.71-12.4 50.81-12.4L50.81-12.4Q48.71-12.4 48.09-12.08 47.46-11.75 47.46-10.95ZM82.68 0L82.68 0Q80.43 0 79.1-1.33 77.78-2.65 77.78-4.6L77.78-4.6 77.78-21.15Q77.78-23.25 79.05-24.7 80.33-26.15 82.68-26.15L82.68-26.15Q84.98-26.15 86.13-24.7 87.28-23.25 87.28-21.05L87.28-21.05 87.28-18.55 88.18-18.55Q88.18-22.8 89.98-24.48 91.78-26.15 94.43-26.15L94.43-26.15Q97.83-26.15 99.43-24.05 101.03-21.95 101.03-18.55L101.03-18.55 101.93-18.55Q101.93-21.4 102.88-23.05 103.83-24.7 105.3-25.43 106.78-26.15 108.38-26.15L108.38-26.15Q111.63-26.15 113.15-24.6 114.68-23.05 115.13-20.45 115.58-17.85 115.58-14.6L115.58-14.6 115.58-4.6Q115.58-2.65 114.25-1.33 112.93 0 110.73 0L110.73 0Q108.53 0 107.18-1.33 105.83-2.65 105.83-4.6L105.83-4.6 105.83-13.45Q105.83-15.25 105.38-16.25 104.93-17.25 103.58-17.25L103.58-17.25Q102.13-17.25 101.7-16.15 101.28-15.05 101.28-13.35L101.28-13.35 101.28-4.6Q101.28-2.65 100.03-1.33 98.78 0 96.58 0L96.58 0Q94.33 0 93-1.33 91.68-2.65 91.68-4.6L91.68-4.6 91.68-13.45Q91.68-15.25 91.23-16.25 90.78-17.25 89.48-17.25L89.48-17.25Q88.03-17.25 87.65-16.15 87.28-15.05 87.28-13.35L87.28-13.35 87.28-4.6Q87.28-2.65 86.08-1.33 84.88 0 82.68 0ZM128.84-31.95L128.84-31.95Q128.84-34.1 130.17-35.43 131.49-36.75 133.84-36.75L133.84-36.75Q136.34-36.75 137.57-35.45 138.79-34.15 138.79-32L138.79-32Q138.79-29.9 137.57-28.63 136.34-27.35 133.84-27.35L133.84-27.35Q131.39-27.35 130.12-28.63 128.84-29.9 128.84-31.95ZM133.84 0L133.84 0Q131.49 0 130.34-1.3 129.19-2.6 129.19-4.55L129.19-4.55 129.19-21.65Q129.19-23.8 130.34-25.05 131.49-26.3 133.84-26.3L133.84-26.3Q136.19-26.3 137.37-25.05 138.54-23.8 138.54-21.75L138.54-21.75 138.54-4.55Q138.54-2.6 137.32-1.3 136.09 0 133.84 0Z" class="slogan-text-1" data-fill-palette-color="secondary" opacity="1" transform="matrix(1,0,0,1,0,0)"/>
                                                                                </svg>
                                                                            </g>
                                                                        </svg>
                                                                    </g>
                                                                </svg>
                                                            </g>
                                                        </svg>
                                                    </g>
                                                    <g/>
                                                </svg>
                                            </g>
                                        </svg>
                                    </g>
                                </svg>
                            </g>
                            <g>
                                <path fill="#8bc53f" stroke="transparent" d="M186.908 27.763A95.22 95.22 0 0 1 208.612 27.763L201.181 27.763A87.79 87.79 0 0 0 194.339 27.763L186.908 27.763M186.908 219.437A95.22 95.22 0 0 0 208.612 219.437L201.181 219.437A87.79 87.79 0 0 1 194.339 219.437L186.908 219.437" data-fill-palette-color="tertiary"/>
                            </g>
                        </svg>
                    </g>
                    <defs/>
                </svg>
                <rect width="395.52" height="247.2" fill="none" stroke="none" visibility="hidden"/>
            </g>
        </svg>
    </g>
</svg>
